<svg width="48" height="48" viewBox="0 0 48 48" fill="none" xmlns="http://www.w3.org/2000/svg">
<rect width="48" height="48" rx="24" fill="#EBF2EA"/>
<path d="M25.7498 17.25C26.8498 17.25 27.7498 16.35 27.7498 15.25C27.7498 14.15 26.8498 13.25 25.7498 13.25C24.6498 13.25 23.7498 14.15 23.7498 15.25C23.7498 16.35 24.6498 17.25 25.7498 17.25ZM29.7498 22.53C28.5198 22.16 27.5298 21.36 26.9498 20.35L25.9498 18.75C25.5398 18.1 24.8398 17.75 24.1098 17.75C23.3298 17.75 22.5198 18.25 22.3298 19.19C22.1398 20.13 19.2498 34.75 19.2498 34.75H21.3498L23.1498 26.75L25.2498 28.75V34.75H27.2498V27.25L25.1498 25.25L25.7498 22.25C26.7498 23.4 28.1598 24.26 29.7498 24.59V34.75H31.2498V20.75H29.7498V22.53ZM19.6798 24.88L17.5598 24.47C17.0198 24.36 16.6598 23.84 16.7698 23.3L17.5298 19.37C17.7398 18.29 18.7898 17.58 19.8698 17.79L21.0298 18.02L19.6798 24.88Z" fill="#347928"/>
</svg>
