<svg width="48" height="48" viewBox="0 0 48 48" fill="none" xmlns="http://www.w3.org/2000/svg">
<rect width="48" height="48" rx="24" fill="#347928"/>
<path d="M21.25 33H25.25C25.25 34.1 24.35 35 23.25 35C22.15 35 21.25 34.1 21.25 33ZM19.25 32H27.25V30H19.25V32ZM30.75 22.5C30.75 26.32 28.09 28.36 26.98 29H19.52C18.41 28.36 15.75 26.32 15.75 22.5C15.75 18.36 19.11 15 23.25 15C27.39 15 30.75 18.36 30.75 22.5ZM35.62 20.37L34.25 21L35.62 21.63L36.25 23L36.88 21.63L38.25 21L36.88 20.37L36.25 19L35.62 20.37ZM33.25 19L34.19 16.94L36.25 16L34.19 15.06L33.25 13L32.31 15.06L30.25 16L32.31 16.94L33.25 19Z" fill="white"/>
</svg>
