<svg width="803" height="764" viewBox="0 0 803 764" fill="none" xmlns="http://www.w3.org/2000/svg">
<g opacity="0.04">
<path d="M555.922 69.7163C376.78 45.0155 200.167 167.463 173.716 359.294C162.807 438.415 180.39 515 218.37 578.804L134.658 642.563L180.025 702.442L263.686 639.057C315.204 692.938 384.173 730.591 463.294 741.5C549.133 753.336 639.874 732.38 714.243 675.7C788.934 619.445 833.664 537.761 845.5 451.922L891.814 116.03L555.922 69.7163ZM651.211 435.021L434.807 581.265C428.064 586.04 418.785 584.38 413.958 578.01C409.454 572.065 409.84 563.751 415.141 558.397L523.342 446.674L374.249 410.904C358.033 407.147 353.772 385.642 367.632 376.144L584.036 229.9C590.78 225.125 600.058 226.785 604.885 233.155C609.389 239.1 609.004 247.414 603.702 252.768L495.501 364.491L644.594 400.261C661.183 404.07 665.071 425.523 651.211 435.021Z" fill="#347928"/>
</g>
</svg>
