<svg width="449" height="399" viewBox="0 0 449 399" fill="none" xmlns="http://www.w3.org/2000/svg">
<path d="M185.132 -20.0893C67.5733 0.736443 -18.5436 113.496 3.75729 239.382C12.9553 291.304 39.5395 335.852 76.3457 368.233L36.688 425.273L77.3386 453.688L117.04 396.893C160.338 420.292 211.307 429.956 263.229 420.758C319.56 410.779 372.317 379.204 407.541 328.506C443.053 278.01 454.583 217.616 444.604 161.286L405.556 -59.1376L185.132 -20.0893ZM319.111 190.085L212.823 325.868C209.556 330.236 203.389 331.076 199.065 328.053C195.028 325.231 193.584 319.93 195.829 315.491L241.14 223.348L140.214 231.123C129.264 232.052 122.225 219.406 129.005 210.627L235.293 74.8437C238.561 70.4757 244.727 69.636 249.052 72.6589C253.088 75.4803 254.533 80.7816 252.288 85.2209L206.976 177.364L307.902 169.589C319.097 168.616 325.892 181.306 319.111 190.085Z" fill="#347928" fill-opacity="0.2"/>
</svg>
