<svg width="144" height="40" viewBox="0 0 144 40" fill="none" xmlns="http://www.w3.org/2000/svg">
<rect width="40" height="40" rx="20" fill="#347928"/>
<path d="M21.5649 12.536L17.7167 17.7367L20.6518 21.7067C21.0822 22.2889 20.9648 23.1226 20.3909 23.5593C19.8169 23.996 18.9951 23.8902 18.5646 23.2947C17.195 21.442 15.5514 19.232 14.5208 17.8161C13.9991 17.1147 12.9555 17.1147 12.4337 17.8161L7.2159 24.8694C6.57672 25.7561 7.18981 27 8.25946 27H31.7396C32.8093 27 33.4223 25.7561 32.7832 24.8827L23.652 12.536C23.1302 11.8213 22.0867 11.8213 21.5649 12.536Z" fill="white"/>
<path d="M55.7433 6.99L60.2253 19.5H58.0653L54.0693 8.088H55.0233L51.0273 19.5H48.8853L53.3673 6.99H55.7433ZM51.2793 15.27H57.7053L58.2453 16.944H50.7573L51.2793 15.27ZM61.6341 19.5V9.582H63.6861V11.652C63.8421 11.232 64.0881 10.86 64.4241 10.536C64.7601 10.2 65.1441 9.936 65.5761 9.744C66.0201 9.552 66.4641 9.456 66.9081 9.456C67.6641 9.456 68.3241 9.624 68.8881 9.96C69.4641 10.284 69.9081 10.758 70.2201 11.382C70.5441 12.006 70.7061 12.762 70.7061 13.65V19.5H68.6721V14.136C68.6721 13.236 68.4441 12.528 67.9881 12.012C67.5321 11.496 66.9321 11.238 66.1881 11.238C65.7081 11.238 65.2761 11.37 64.8921 11.634C64.5201 11.898 64.2261 12.264 64.0101 12.732C63.7941 13.188 63.6861 13.716 63.6861 14.316V19.5H61.6341ZM76.7435 19.626C75.8795 19.626 75.0935 19.416 74.3855 18.996C73.6895 18.564 73.1315 17.97 72.7115 17.214C72.3035 16.446 72.0995 15.552 72.0995 14.532C72.0995 13.512 72.3035 12.624 72.7115 11.868C73.1315 11.1 73.6895 10.506 74.3855 10.086C75.0935 9.666 75.8795 9.456 76.7435 9.456C77.5595 9.456 78.2735 9.66 78.8855 10.068C79.4975 10.464 79.9415 11.016 80.2175 11.724V9.582H82.2875V19.5H81.3695C81.0335 19.5 80.7575 19.392 80.5415 19.176C80.3255 18.96 80.2175 18.684 80.2175 18.348V17.34C79.9415 18.048 79.4975 18.606 78.8855 19.014C78.2735 19.422 77.5595 19.626 76.7435 19.626ZM77.2115 17.844C77.7275 17.844 78.2135 17.718 78.6695 17.466C79.1255 17.214 79.4975 16.842 79.7855 16.35C80.0735 15.846 80.2175 15.24 80.2175 14.532C80.2175 13.812 80.0735 13.212 79.7855 12.732C79.4975 12.24 79.1255 11.868 78.6695 11.616C78.2135 11.364 77.7275 11.238 77.2115 11.238C76.7075 11.238 76.2215 11.364 75.7535 11.616C75.2975 11.868 74.9255 12.24 74.6375 12.732C74.3495 13.212 74.2055 13.812 74.2055 14.532C74.2055 15.24 74.3495 15.846 74.6375 16.35C74.9255 16.842 75.2975 17.214 75.7535 17.466C76.2215 17.718 76.7075 17.844 77.2115 17.844ZM84.4427 19.5V6.18H86.4947V13.74C87.1307 13.632 87.7367 13.41 88.3127 13.074C88.9007 12.726 89.4107 12.264 89.8427 11.688C90.2867 11.1 90.5987 10.398 90.7787 9.582H92.9387C92.7587 10.374 92.4587 11.1 92.0387 11.76C91.6187 12.408 91.1267 12.972 90.5627 13.452C90.0107 13.92 89.4287 14.274 88.8167 14.514C89.2727 14.646 89.7347 14.874 90.2027 15.198C90.6707 15.51 91.1087 15.888 91.5167 16.332C91.9367 16.776 92.2907 17.268 92.5787 17.808C92.8787 18.348 93.0707 18.912 93.1547 19.5H90.9947C90.8747 18.924 90.6587 18.402 90.3467 17.934C90.0467 17.454 89.6867 17.04 89.2667 16.692C88.8587 16.332 88.4147 16.044 87.9347 15.828C87.4547 15.6 86.9747 15.462 86.4947 15.414V19.5H84.4427ZM104.354 6.99L108.836 19.5H106.676L102.68 8.088H103.634L99.6378 19.5H97.4958L101.978 6.99H104.354ZM99.8898 15.27H106.316L106.856 16.944H99.3678L99.8898 15.27ZM109.893 17.232V6.18H111.945V17.052C111.945 17.316 112.023 17.52 112.179 17.664C112.335 17.808 112.521 17.88 112.737 17.88C112.881 17.88 113.007 17.856 113.115 17.808L113.547 19.32C113.199 19.524 112.785 19.626 112.305 19.626C111.921 19.626 111.543 19.548 111.171 19.392C110.799 19.224 110.493 18.966 110.253 18.618C110.013 18.258 109.893 17.796 109.893 17.232ZM118.674 19.626C117.81 19.626 117.024 19.416 116.316 18.996C115.62 18.564 115.062 17.97 114.642 17.214C114.234 16.446 114.03 15.552 114.03 14.532C114.03 13.512 114.234 12.624 114.642 11.868C115.062 11.1 115.62 10.506 116.316 10.086C117.024 9.666 117.81 9.456 118.674 9.456C119.49 9.456 120.204 9.66 120.816 10.068C121.428 10.464 121.872 11.016 122.148 11.724V9.582H124.218V19.5H123.3C122.964 19.5 122.688 19.392 122.472 19.176C122.256 18.96 122.148 18.684 122.148 18.348V17.34C121.872 18.048 121.428 18.606 120.816 19.014C120.204 19.422 119.49 19.626 118.674 19.626ZM119.142 17.844C119.658 17.844 120.144 17.718 120.6 17.466C121.056 17.214 121.428 16.842 121.716 16.35C122.004 15.846 122.148 15.24 122.148 14.532C122.148 13.812 122.004 13.212 121.716 12.732C121.428 12.24 121.056 11.868 120.6 11.616C120.144 11.364 119.658 11.238 119.142 11.238C118.638 11.238 118.152 11.364 117.684 11.616C117.228 11.868 116.856 12.24 116.568 12.732C116.28 13.212 116.136 13.812 116.136 14.532C116.136 15.24 116.28 15.846 116.568 16.35C116.856 16.842 117.228 17.214 117.684 17.466C118.152 17.718 118.638 17.844 119.142 17.844ZM126.374 19.5V9.582H128.426V11.652C128.582 11.232 128.822 10.86 129.146 10.536C129.482 10.2 129.86 9.936 130.28 9.744C130.712 9.552 131.138 9.456 131.558 9.456C132.494 9.456 133.28 9.702 133.916 10.194C134.552 10.686 134.948 11.34 135.104 12.156C135.248 11.64 135.488 11.184 135.824 10.788C136.16 10.38 136.562 10.056 137.03 9.816C137.51 9.576 138.026 9.456 138.578 9.456C139.742 9.456 140.678 9.816 141.386 10.536C142.106 11.244 142.466 12.294 142.466 13.686V19.5H140.432V14.172C140.432 13.26 140.204 12.546 139.748 12.03C139.292 11.502 138.692 11.238 137.948 11.238C137.192 11.238 136.586 11.532 136.13 12.12C135.674 12.708 135.446 13.452 135.446 14.352V19.5H133.412V14.172C133.412 13.26 133.184 12.546 132.728 12.03C132.272 11.502 131.672 11.238 130.928 11.238C130.424 11.238 129.986 11.376 129.614 11.652C129.242 11.916 128.948 12.282 128.732 12.75C128.528 13.218 128.426 13.752 128.426 14.352V19.5H126.374Z" fill="#347928"/>
<path d="M53.842 31.1944C53.7868 31.0472 53.6979 30.8877 53.5752 30.716C53.4525 30.5381 53.2961 30.3695 53.106 30.21C52.922 30.0505 52.7043 29.9187 52.4528 29.8144C52.2075 29.7101 51.9315 29.658 51.6248 29.658C51.1525 29.658 50.7232 29.7684 50.3368 29.9892C49.9565 30.2039 49.656 30.5105 49.4352 30.9092C49.2144 31.3079 49.104 31.7801 49.104 32.326C49.104 32.8657 49.2144 33.3349 49.4352 33.7336C49.6621 34.1323 49.9657 34.442 50.346 34.6628C50.7324 34.8836 51.1587 34.994 51.6248 34.994C51.9621 34.994 52.2657 34.9204 52.5356 34.7732C52.8055 34.626 53.0355 34.4359 53.2256 34.2028C53.4219 33.9697 53.5752 33.7183 53.6856 33.4484C53.8021 33.1724 53.8727 32.9087 53.8972 32.6572H51.3672V32.1144H54.67V35.5H54.0628V33.2092L54.164 33.246C54.1272 33.3871 54.0689 33.5557 53.9892 33.752C53.9095 33.9483 53.8021 34.1537 53.6672 34.3684C53.5323 34.5769 53.3667 34.7732 53.1704 34.9572C52.9741 35.1351 52.7441 35.2823 52.4804 35.3988C52.2228 35.5092 51.9253 35.5644 51.588 35.5644C51.1403 35.5644 50.7263 35.4847 50.346 35.3252C49.9657 35.1657 49.6315 34.9419 49.3432 34.6536C49.0611 34.3653 48.8403 34.0249 48.6808 33.6324C48.5213 33.2337 48.4416 32.7983 48.4416 32.326C48.4416 31.8537 48.5183 31.4213 48.6716 31.0288C48.8249 30.6301 49.0396 30.2867 49.3156 29.9984C49.5977 29.7101 49.932 29.4863 50.3184 29.3268C50.7109 29.1673 51.1464 29.0876 51.6248 29.0876C52.2688 29.0876 52.8423 29.2532 53.3452 29.5844C53.8543 29.9095 54.2315 30.3695 54.4768 30.9644L53.842 31.1944ZM57.9541 35.5644C57.4818 35.5644 57.0556 35.4601 56.6753 35.2516C56.3012 35.0431 56.0037 34.7456 55.7829 34.3592C55.5682 33.9728 55.4609 33.5159 55.4609 32.9884C55.4609 32.4548 55.5713 31.9948 55.7921 31.6084C56.019 31.222 56.3226 30.9276 56.7029 30.7252C57.0832 30.5167 57.5064 30.4124 57.9725 30.4124C58.4448 30.4124 58.871 30.5167 59.2513 30.7252C59.6316 30.9276 59.9321 31.222 60.1529 31.6084C60.3737 31.9948 60.4841 32.4548 60.4841 32.9884C60.4841 33.5159 60.3706 33.9728 60.1437 34.3592C59.9229 34.7456 59.6193 35.0431 59.2329 35.2516C58.8526 35.4601 58.4264 35.5644 57.9541 35.5644ZM57.9541 35.0032C58.273 35.0032 58.5736 34.9327 58.8557 34.7916C59.1378 34.6444 59.3678 34.4236 59.5457 34.1292C59.7297 33.8287 59.8217 33.4484 59.8217 32.9884C59.8217 32.5284 59.7328 32.1512 59.5549 31.8568C59.377 31.5563 59.147 31.3355 58.8649 31.1944C58.5828 31.0472 58.2822 30.9736 57.9633 30.9736C57.6444 30.9736 57.3438 31.0472 57.0617 31.1944C56.7796 31.3355 56.5496 31.5563 56.3717 31.8568C56.2 32.1512 56.1141 32.5284 56.1141 32.9884C56.1141 33.4484 56.2 33.8287 56.3717 34.1292C56.5496 34.4236 56.7765 34.6444 57.0525 34.7916C57.3346 34.9327 57.6352 35.0032 57.9541 35.0032ZM63.1339 29.152H63.8239L65.3971 35.1044H65.1763L66.9427 29.152H67.6603L69.3807 35.1136H69.1599L70.7423 29.152H71.4323L69.6107 35.5H68.8931L67.1727 29.75H67.3843L65.6179 35.5H64.9187L63.1339 29.152ZM72.1874 35.5V30.4768H72.8314V35.5H72.1874ZM72.5094 29.5292C72.3744 29.5292 72.2548 29.4832 72.1506 29.3912C72.0463 29.2931 71.9942 29.1735 71.9942 29.0324C71.9942 28.8913 72.0402 28.7779 72.1322 28.692C72.2303 28.6 72.356 28.554 72.5094 28.554C72.6504 28.554 72.77 28.6 72.8682 28.692C72.9724 28.7779 73.0246 28.8913 73.0246 29.0324C73.0246 29.1735 72.9724 29.2931 72.8682 29.3912C72.77 29.4832 72.6504 29.5292 72.5094 29.5292ZM74.0665 34.6168V28.692H74.7105V34.5616C74.7105 34.7088 74.7504 34.8192 74.8301 34.8928C74.9099 34.9603 75.0049 34.994 75.1153 34.994C75.1828 34.994 75.2503 34.9817 75.3177 34.9572L75.4649 35.4448C75.3361 35.5245 75.1797 35.5644 74.9957 35.5644C74.8485 35.5644 74.7044 35.5337 74.5633 35.4724C74.4223 35.4111 74.3027 35.3099 74.2045 35.1688C74.1125 35.0277 74.0665 34.8437 74.0665 34.6168ZM78.2863 35.5644C77.8509 35.5644 77.4522 35.4571 77.0903 35.2424C76.7346 35.0216 76.4494 34.718 76.2347 34.3316C76.0262 33.9391 75.9219 33.4883 75.9219 32.9792C75.9219 32.4701 76.0262 32.0224 76.2347 31.636C76.4494 31.2496 76.7346 30.9491 77.0903 30.7344C77.4522 30.5197 77.8509 30.4124 78.2863 30.4124C78.7586 30.4124 79.1757 30.5197 79.5375 30.7344C79.8994 30.9491 80.157 31.2373 80.3103 31.5992V28.692H80.9543V35.5H80.7151C80.5863 35.5 80.4851 35.4663 80.4115 35.3988C80.3441 35.3252 80.3103 35.224 80.3103 35.0952V34.3592C80.157 34.7211 79.8933 35.0124 79.5191 35.2332C79.1511 35.454 78.7402 35.5644 78.2863 35.5644ZM78.4427 35.0032C78.7923 35.0032 79.1082 34.9204 79.3903 34.7548C79.6725 34.5892 79.8963 34.3561 80.0619 34.0556C80.2275 33.7489 80.3103 33.3901 80.3103 32.9792C80.3103 32.5683 80.2275 32.2125 80.0619 31.912C79.8963 31.6115 79.6725 31.3815 79.3903 31.222C79.1082 31.0564 78.7923 30.9736 78.4427 30.9736C78.0931 30.9736 77.7773 31.0564 77.4951 31.222C77.213 31.3815 76.9891 31.6115 76.8235 31.912C76.6579 32.2125 76.5751 32.5683 76.5751 32.9792C76.5751 33.3901 76.6579 33.7489 76.8235 34.0556C76.9891 34.3561 77.213 34.5892 77.4951 34.7548C77.7773 34.9204 78.0931 35.0032 78.4427 35.0032ZM89.2915 35.5L85.7127 31.866C85.4367 31.5839 85.2343 31.3293 85.1055 31.1024C84.9829 30.8693 84.9215 30.6179 84.9215 30.348C84.9215 30.0781 84.9859 29.8389 85.1147 29.6304C85.2497 29.4219 85.4367 29.2593 85.6759 29.1428C85.9213 29.0263 86.2065 28.968 86.5315 28.968C86.8382 28.968 87.105 29.0355 87.3319 29.1704C87.5589 29.3053 87.7398 29.4863 87.8747 29.7132C88.0158 29.934 88.0986 30.1824 88.1231 30.4584L87.4975 30.6056C87.473 30.2928 87.3626 30.0321 87.1663 29.8236C86.9762 29.6089 86.7554 29.5016 86.5039 29.5016C86.2218 29.5016 85.9949 29.5813 85.8231 29.7408C85.6514 29.8941 85.5655 30.0935 85.5655 30.3388C85.5655 30.5473 85.6207 30.7467 85.7311 30.9368C85.8415 31.1208 86.0102 31.3293 86.2371 31.5624L90.1287 35.5H89.2915ZM86.2095 35.6104C85.7802 35.6104 85.3999 35.5307 85.0687 35.3712C84.7375 35.2056 84.4799 34.9787 84.2959 34.6904C84.1119 34.396 84.0199 34.0525 84.0199 33.66C84.0199 33.1877 84.1641 32.7768 84.4523 32.4272C84.7406 32.0776 85.1577 31.8077 85.7035 31.6176L85.9703 31.5256L86.3291 31.958L85.9887 32.0776C85.541 32.2371 85.2067 32.4487 84.9859 32.7124C84.7713 32.97 84.6639 33.2797 84.6639 33.6416C84.6639 33.9115 84.7283 34.1537 84.8571 34.3684C84.9921 34.5769 85.1761 34.7425 85.4091 34.8652C85.6422 34.9879 85.909 35.0492 86.2095 35.0492C86.5653 35.0492 86.8811 34.9848 87.1571 34.856C87.4393 34.7211 87.703 34.5125 87.9483 34.2304C88.1998 33.9483 88.4513 33.5895 88.7027 33.154L89.1075 32.4456L89.6503 32.7124L89.2731 33.3748C88.9849 33.8839 88.6874 34.304 88.3807 34.6352C88.0802 34.9664 87.7551 35.2117 87.4055 35.3712C87.0559 35.5307 86.6573 35.6104 86.2095 35.6104ZM92.9823 29.152H96.4599V29.6856H93.6263V32.0408H96.0183V32.5744H93.6263V35.5H92.9823V29.152ZM99.3292 35.5644C98.9551 35.5644 98.6055 35.5092 98.2804 35.3988C97.9615 35.2823 97.6794 35.1167 97.434 34.902C97.1948 34.6812 97.0078 34.4144 96.8728 34.1016C96.7379 33.7888 96.6704 33.43 96.6704 33.0252C96.6704 32.6572 96.741 32.3168 96.882 32.004C97.0292 31.6851 97.2286 31.406 97.48 31.1668C97.7315 30.9276 98.0167 30.7436 98.3356 30.6148C98.6546 30.4799 98.9858 30.4124 99.3292 30.4124C99.6298 30.4124 99.9058 30.4523 100.157 30.532C100.409 30.6056 100.623 30.7129 100.801 30.854C100.985 30.9951 101.126 31.1576 101.224 31.3416C101.329 31.5195 101.381 31.7157 101.381 31.9304C101.381 32.2493 101.295 32.5131 101.123 32.7216C100.958 32.9301 100.734 33.0927 100.452 33.2092C100.17 33.3257 99.8598 33.4085 99.5224 33.4576C99.1851 33.5005 98.8447 33.522 98.5012 33.522C98.3602 33.522 98.2191 33.5189 98.078 33.5128C97.9431 33.5067 97.8112 33.4975 97.6824 33.4852C97.5598 33.4668 97.4432 33.4515 97.3328 33.4392C97.3635 33.7152 97.4616 33.9728 97.6272 34.212C97.799 34.4512 98.029 34.6444 98.3172 34.7916C98.6116 34.9327 98.949 35.0032 99.3292 35.0032C99.6114 35.0032 99.872 34.9541 100.111 34.856C100.35 34.7517 100.559 34.6291 100.737 34.488C100.921 34.3469 101.065 34.2181 101.169 34.1016L101.638 34.4696C101.516 34.6352 101.341 34.8039 101.114 34.9756C100.893 35.1412 100.633 35.2823 100.332 35.3988C100.032 35.5092 99.6972 35.5644 99.3292 35.5644ZM98.4368 32.9608C98.7006 32.9608 98.9674 32.9455 99.2372 32.9148C99.5132 32.878 99.7647 32.8228 99.9916 32.7492C100.219 32.6756 100.403 32.5775 100.544 32.4548C100.685 32.326 100.755 32.1696 100.755 31.9856C100.755 31.7893 100.691 31.6145 100.562 31.4612C100.439 31.3079 100.271 31.1883 100.056 31.1024C99.8475 31.0165 99.6175 30.9736 99.366 30.9736C98.9858 30.9736 98.6423 31.0687 98.3356 31.2588C98.029 31.4428 97.7836 31.682 97.5996 31.9764C97.4156 32.2647 97.3144 32.5683 97.296 32.8872C97.4248 32.9117 97.5874 32.9301 97.7836 32.9424C97.986 32.9547 98.2038 32.9608 98.4368 32.9608ZM104.812 35.5644C104.438 35.5644 104.088 35.5092 103.763 35.3988C103.444 35.2823 103.162 35.1167 102.917 34.902C102.678 34.6812 102.491 34.4144 102.356 34.1016C102.221 33.7888 102.153 33.43 102.153 33.0252C102.153 32.6572 102.224 32.3168 102.365 32.004C102.512 31.6851 102.712 31.406 102.963 31.1668C103.214 30.9276 103.5 30.7436 103.819 30.6148C104.138 30.4799 104.469 30.4124 104.812 30.4124C105.113 30.4124 105.389 30.4523 105.64 30.532C105.892 30.6056 106.106 30.7129 106.284 30.854C106.468 30.9951 106.609 31.1576 106.707 31.3416C106.812 31.5195 106.864 31.7157 106.864 31.9304C106.864 32.2493 106.778 32.5131 106.606 32.7216C106.441 32.9301 106.217 33.0927 105.935 33.2092C105.652 33.3257 105.343 33.4085 105.005 33.4576C104.668 33.5005 104.328 33.522 103.984 33.522C103.843 33.522 103.702 33.5189 103.561 33.5128C103.426 33.5067 103.294 33.4975 103.165 33.4852C103.043 33.4668 102.926 33.4515 102.816 33.4392C102.846 33.7152 102.945 33.9728 103.11 34.212C103.282 34.4512 103.512 34.6444 103.8 34.7916C104.095 34.9327 104.432 35.0032 104.812 35.0032C105.094 35.0032 105.355 34.9541 105.594 34.856C105.833 34.7517 106.042 34.6291 106.22 34.488C106.404 34.3469 106.548 34.2181 106.652 34.1016L107.121 34.4696C106.999 34.6352 106.824 34.8039 106.597 34.9756C106.376 35.1412 106.116 35.2823 105.815 35.3988C105.514 35.5092 105.18 35.5644 104.812 35.5644ZM103.92 32.9608C104.184 32.9608 104.45 32.9455 104.72 32.9148C104.996 32.878 105.248 32.8228 105.475 32.7492C105.702 32.6756 105.886 32.5775 106.027 32.4548C106.168 32.326 106.238 32.1696 106.238 31.9856C106.238 31.7893 106.174 31.6145 106.045 31.4612C105.922 31.3079 105.754 31.1883 105.539 31.1024C105.33 31.0165 105.1 30.9736 104.849 30.9736C104.469 30.9736 104.125 31.0687 103.819 31.2588C103.512 31.4428 103.267 31.682 103.083 31.9764C102.899 32.2647 102.797 32.5683 102.779 32.8872C102.908 32.9117 103.07 32.9301 103.267 32.9424C103.469 32.9547 103.687 32.9608 103.92 32.9608ZM107.931 34.6168V28.692H108.575V34.5616C108.575 34.7088 108.615 34.8192 108.694 34.8928C108.774 34.9603 108.869 34.994 108.98 34.994C109.047 34.994 109.115 34.9817 109.182 34.9572L109.329 35.4448C109.2 35.5245 109.044 35.5644 108.86 35.5644C108.713 35.5644 108.569 35.5337 108.428 35.4724C108.287 35.4111 108.167 35.3099 108.069 35.1688C107.977 35.0277 107.931 34.8437 107.931 34.6168ZM114.96 29.152L117.297 35.5H116.616L114.436 29.52H114.758L112.568 35.5H111.888L114.234 29.152H114.96ZM112.936 33.4392H116.212L116.386 33.9728H112.771L112.936 33.4392ZM117.875 34.6168V28.692H118.519V34.5616C118.519 34.7088 118.559 34.8192 118.639 34.8928C118.718 34.9603 118.813 34.994 118.924 34.994C118.991 34.994 119.059 34.9817 119.126 34.9572L119.273 35.4448C119.145 35.5245 118.988 35.5644 118.804 35.5644C118.657 35.5644 118.513 35.5337 118.372 35.4724C118.231 35.4111 118.111 35.3099 118.013 35.1688C117.921 35.0277 117.875 34.8437 117.875 34.6168ZM120.071 35.5V30.4768H120.715V35.5H120.071ZM120.393 29.5292C120.258 29.5292 120.138 29.4832 120.034 29.3912C119.93 29.2931 119.878 29.1735 119.878 29.0324C119.878 28.8913 119.924 28.7779 120.016 28.692C120.114 28.6 120.24 28.554 120.393 28.554C120.534 28.554 120.654 28.6 120.752 28.692C120.856 28.7779 120.908 28.8913 120.908 29.0324C120.908 29.1735 120.856 29.2931 120.752 29.3912C120.654 29.4832 120.534 29.5292 120.393 29.5292ZM122.042 30.4768L123.735 34.8744L125.428 30.4768H126.108L124.094 35.5H123.367L121.352 30.4768H122.042ZM129.07 35.5644C128.696 35.5644 128.346 35.5092 128.021 35.3988C127.702 35.2823 127.42 35.1167 127.174 34.902C126.935 34.6812 126.748 34.4144 126.613 34.1016C126.478 33.7888 126.411 33.43 126.411 33.0252C126.411 32.6572 126.481 32.3168 126.622 32.004C126.77 31.6851 126.969 31.406 127.22 31.1668C127.472 30.9276 127.757 30.7436 128.076 30.6148C128.395 30.4799 128.726 30.4124 129.07 30.4124C129.37 30.4124 129.646 30.4523 129.898 30.532C130.149 30.6056 130.364 30.7129 130.542 30.854C130.726 30.9951 130.867 31.1576 130.965 31.3416C131.069 31.5195 131.121 31.7157 131.121 31.9304C131.121 32.2493 131.035 32.5131 130.864 32.7216C130.698 32.9301 130.474 33.0927 130.192 33.2092C129.91 33.3257 129.6 33.4085 129.263 33.4576C128.926 33.5005 128.585 33.522 128.242 33.522C128.101 33.522 127.96 33.5189 127.818 33.5128C127.684 33.5067 127.552 33.4975 127.423 33.4852C127.3 33.4668 127.184 33.4515 127.073 33.4392C127.104 33.7152 127.202 33.9728 127.368 34.212C127.539 34.4512 127.769 34.6444 128.058 34.7916C128.352 34.9327 128.689 35.0032 129.07 35.0032C129.352 35.0032 129.612 34.9541 129.852 34.856C130.091 34.7517 130.299 34.6291 130.477 34.488C130.661 34.3469 130.805 34.2181 130.91 34.1016L131.379 34.4696C131.256 34.6352 131.081 34.8039 130.854 34.9756C130.634 35.1412 130.373 35.2823 130.072 35.3988C129.772 35.5092 129.438 35.5644 129.07 35.5644ZM128.177 32.9608C128.441 32.9608 128.708 32.9455 128.978 32.9148C129.254 32.878 129.505 32.8228 129.732 32.7492C129.959 32.6756 130.143 32.5775 130.284 32.4548C130.425 32.326 130.496 32.1696 130.496 31.9856C130.496 31.7893 130.431 31.6145 130.302 31.4612C130.18 31.3079 130.011 31.1883 129.796 31.1024C129.588 31.0165 129.358 30.9736 129.106 30.9736C128.726 30.9736 128.383 31.0687 128.076 31.2588C127.769 31.4428 127.524 31.682 127.34 31.9764C127.156 32.2647 127.055 32.5683 127.036 32.8872C127.165 32.9117 127.328 32.9301 127.524 32.9424C127.726 32.9547 127.944 32.9608 128.177 32.9608Z" fill="#212121"/>
</svg>
